<?xml version="1.0" encoding="UTF-8"?>
<svg width="512" height="512" viewBox="0 0 512 512" fill="none" xmlns="http://www.w3.org/2000/svg">
  <circle cx="256" cy="256" r="240" fill="#1E40AF"/>
  <path d="M256 96C167.6 96 96 167.6 96 256C96 344.4 167.6 416 256 416C344.4 416 416 344.4 416 256C416 167.6 344.4 96 256 96ZM256 384C181.6 384 128 330.4 128 256C128 181.6 181.6 128 256 128C330.4 128 384 181.6 384 256C384 330.4 330.4 384 256 384Z" fill="white"/>
  <path d="M256 160C203.2 160 160 203.2 160 256C160 308.8 203.2 352 256 352C308.8 352 352 308.8 352 256C352 203.2 308.8 160 256 160ZM256 320C225.6 320 192 286.4 192 256C192 225.6 225.6 192 256 192C286.4 192 320 225.6 320 256C320 286.4 286.4 320 256 320Z" fill="white"/>
  <path d="M256 224C238.4 224 224 238.4 224 256C224 273.6 238.4 288 256 288C273.6 288 288 273.6 288 256C288 238.4 273.6 224 256 224Z" fill="white"/>
</svg> 